<svg id="Layer_1" data-name="Layer 1" xmlns="http://www.w3.org/2000/svg" xmlns:xlink="http://www.w3.org/1999/xlink" viewBox="0 0 568.3 595.6"><defs><style>.cls-1{fill:none;}.cls-2{fill:#fff;}.cls-3{clip-path:url(#clip-path);}</style><clipPath id="clip-path" transform="translate(-13.7 -121.7)"><rect class="cls-1" x="32.95" y="298.49" width="512.7" height="503.6" transform="translate(-304.38 365.74) rotate(-45)"/></clipPath></defs><title>logo-dark-w</title><path class="cls-2" d="M557.5,333.5c-.8-2.4-1.6-4.7-2.5-7l24.3-9c.9,2.5,1.8,5.1,2.7,7.7Zm-519.3-.1-24.5-8.3c.9-2.5,1.8-5.1,2.7-7.6l24.3,9C39.9,328.7,39,331,38.2,333.4Zm507.2-29.6c-1.1-2.2-2.2-4.5-3.3-6.7l23.1-11.8c1.2,2.4,2.4,4.9,3.6,7.3Zm-495.1-.1L26.9,292.6c1.1-2.4,2.4-4.9,3.6-7.3L53.6,297C52.5,299.2,51.4,301.5,50.3,303.7Zm479.6-28.1c-1.3-2.1-2.7-4.2-4-6.2L547.4,255c1.5,2.2,3,4.5,4.4,6.8Zm-464.1,0L43.9,261.8c1.4-2.3,2.9-4.5,4.4-6.8l21.5,14.4C68.4,271.4,67.1,273.5,65.8,275.6Zm445.5-26.1c-1.5-1.9-3.1-3.8-4.7-5.7L526.3,227c1.7,2.1,3.5,4.2,5.2,6.2Zm-426.9-.1L64.3,233.1c1.7-2.1,3.4-4.2,5.2-6.2l19.7,16.8Zm405.3-23.7q-2.55-2.55-5.4-5.1l17.6-19c2,1.8,4,3.7,5.9,5.6Zm-383.7,0L87.9,207.2c1.9-1.9,3.9-3.8,5.9-5.6l17.6,19Q108.7,223,106,225.7Zm359.5-21.1c-1.9-1.5-3.9-3-5.9-4.5l15.3-20.9c2.2,1.6,4.3,3.2,6.5,4.9Zm-335.3,0-15.8-20.5c2.1-1.7,4.3-3.3,6.5-4.9l15.3,20.9Q133.2,202.2,130.2,204.6ZM439,186.5c-2.1-1.3-4.3-2.5-6.4-3.7l12.7-22.5c2.3,1.3,4.7,2.7,7,4.1Zm-282.3-.1-13.4-22.2c2.3-1.4,4.7-2.8,7-4.1L163,182.6C161,183.9,158.8,185.1,156.7,186.4Zm253.9-14.9c-2.2-1-4.5-2-6.8-3l10-23.9c2.5,1,5,2.1,7.4,3.2Zm-225.4,0-10.7-23.6c2.5-1.1,5-2.2,7.5-3.2l10,23.9C189.7,169.5,187.4,170.5,185.2,171.5Zm195.4-11.4c-2.4-.7-4.7-1.5-7.1-2.1l7.1-24.9c2.6.7,5.2,1.5,7.8,2.3ZM215.2,160l-7.8-24.7c2.6-.8,5.2-1.6,7.8-2.3l7.1,24.9C219.9,158.6,217.5,159.3,215.2,160Zm134.3-7.8c-2.4-.5-4.9-.9-7.3-1.3l4.2-25.5c2.6.4,5.3.9,8,1.4Zm-103.2,0-4.8-25.4c2.6-.5,5.3-1,8-1.4l4.1,25.6C251.2,151.3,248.7,151.7,246.3,152.2Zm71.4-4.1c-2.5-.2-5-.3-7.4-.4l1.1-25.9c2.7.1,5.4.3,8.1.5Zm-39.5-.1-1.8-25.8c2.7-.2,5.4-.3,8.1-.5l1.1,25.9C283.1,147.7,280.6,147.9,278.2,148Z" transform="translate(-13.7 -121.7)"/><path class="cls-2" d="M265,589l26.7-22.4c2.5-2.1,4.7-4,6.4-5.7a35.57,35.57,0,0,0,4.3-4.8,17.52,17.52,0,0,0,2.4-4.4,14.05,14.05,0,0,0,.7-4.7c0-3.5-1.1-6.1-3.1-7.8a11.93,11.93,0,0,0-7.9-2.6,13.91,13.91,0,0,0-8.4,2.8,49.46,49.46,0,0,0-8.1,8.3l-12.6-9.9a78.08,78.08,0,0,1,6-7.3,36.56,36.56,0,0,1,6.5-5.4,27.53,27.53,0,0,1,7.8-3.4,35.76,35.76,0,0,1,9.7-1.2,31.76,31.76,0,0,1,11.4,1.7,28.35,28.35,0,0,1,8.9,4.9,21.56,21.56,0,0,1,5.8,7.8,24.63,24.63,0,0,1,2.1,10.3v.2a31.84,31.84,0,0,1-1.2,9.1,28.48,28.48,0,0,1-3.8,7.6,39.19,39.19,0,0,1-6.6,7.1q-4.05,3.6-9.3,7.8l-13.1,10.3,35.3-.4.2,15.4-59.9.7Z" transform="translate(-13.7 -121.7)"/><path class="cls-2" d="M26.8,544.7a16.51,16.51,0,0,1-1.6-6.8,15.91,15.91,0,0,1,1.1-6.5,17.31,17.31,0,0,1,9.1-9.6h.1a17.77,17.77,0,0,1,6.7-1.6,15.84,15.84,0,0,1,6.5,1,16.63,16.63,0,0,1,5.7,3.4,18.06,18.06,0,0,1,4.2,5.8,24,24,0,0,1,1.4,4,25.79,25.79,0,0,1,.5,3.6,18.7,18.7,0,0,1-.3,3.4,19.17,19.17,0,0,1-.9,3.2L53.8,543a19.17,19.17,0,0,0,1-5.1,10.47,10.47,0,0,0-1.1-5.1,10,10,0,0,0-2.7-3.6,11.13,11.13,0,0,0-3.8-2.2,10.68,10.68,0,0,0-4.4-.5,12.57,12.57,0,0,0-4.5,1.2h-.1a13.58,13.58,0,0,0-3.9,2.7,11.52,11.52,0,0,0-2.5,3.7,10.7,10.7,0,0,0-.9,4.3,9.76,9.76,0,0,0,1,4.4,10.51,10.51,0,0,0,3.3,4.3,19.12,19.12,0,0,0,4.7,2.6l-1.9,5a34.55,34.55,0,0,1-3.4-1.4,26.06,26.06,0,0,1-3-2,17.58,17.58,0,0,1-2.6-2.8A15.75,15.75,0,0,1,26.8,544.7Z" transform="translate(-13.7 -121.7)"/><path class="cls-2" d="M46.9,580.9a15.66,15.66,0,0,1-2.4-5.5,11.88,11.88,0,0,1-.1-5.3,12.22,12.22,0,0,1,2.3-4.9,18.39,18.39,0,0,1,4.8-4.3l16.2-10.5,3.2,4.9-16,10.4c-2.6,1.7-4.2,3.6-4.8,5.8a8.11,8.11,0,0,0,1.4,6.6,8,8,0,0,0,5.4,3.9c2.1.4,4.5-.2,7.1-1.9l16.2-10.5,3.2,4.9-16,10.4a17.08,17.08,0,0,1-6.1,2.7,11.42,11.42,0,0,1-5.5.1,11.25,11.25,0,0,1-4.8-2.3A14.94,14.94,0,0,1,46.9,580.9Z" transform="translate(-13.7 -121.7)"/><path class="cls-2" d="M72.2,614.5a21.64,21.64,0,0,1-3.9-6.5,19.26,19.26,0,0,1-1.2-7.6l5.5-.1a21.58,21.58,0,0,0,.8,5.9,13.9,13.9,0,0,0,2.8,5,7,7,0,0,0,3.7,2.5,3.78,3.78,0,0,0,3.4-.8l.1-.1a3.05,3.05,0,0,0,1-1.3,3.08,3.08,0,0,0,.2-1.7,17.55,17.55,0,0,0-.6-2.5,27.43,27.43,0,0,0-1.7-3.6,43.83,43.83,0,0,1-2.1-4.5,11.8,11.8,0,0,1-.8-3.9,6.51,6.51,0,0,1,.7-3.4,8.77,8.77,0,0,1,2.5-3.1l.1-.1a9,9,0,0,1,3.6-1.9,8.59,8.59,0,0,1,3.9-.2,12.24,12.24,0,0,1,3.9,1.4,14.38,14.38,0,0,1,3.6,3,19.54,19.54,0,0,1,3.5,5.7,18.46,18.46,0,0,1,1.2,6.2l-5.5.5a24.26,24.26,0,0,0-1-5.1,11.33,11.33,0,0,0-2.3-4,6.14,6.14,0,0,0-3.5-2.3,3.47,3.47,0,0,0-3.1.8l-.1.1a4.86,4.86,0,0,0-1.1,1.4,3.46,3.46,0,0,0-.2,1.8,11.34,11.34,0,0,0,.7,2.6,30.3,30.3,0,0,0,1.8,3.7,27.34,27.34,0,0,1,1.9,4.5,11.51,11.51,0,0,1,.7,3.9,7.25,7.25,0,0,1-.7,3.3,8.65,8.65,0,0,1-2.3,2.9l-.1.1a10.22,10.22,0,0,1-3.8,2.1,9,9,0,0,1-4,.2,11.19,11.19,0,0,1-4-1.6A27,27,0,0,1,72.2,614.5Z" transform="translate(-13.7 -121.7)"/><path class="cls-2" d="M115.5,618l-7.9-7.1,3.7-4.1L131.6,625l-3.7,4.1L120,622l-18.8,21-4.4-4Z" transform="translate(-13.7 -121.7)"/><path class="cls-2" d="M133.3,668.2a16.9,16.9,0,0,1-5.2-5.1,16.53,16.53,0,0,1-2.6-12.7,17.21,17.21,0,0,1,2.6-6.3l.1-.1a17.28,17.28,0,0,1,10.9-7.5,18.49,18.49,0,0,1,18.6,7.8,16.53,16.53,0,0,1,2.6,12.7,16.54,16.54,0,0,1-2.6,6.3l-.1.1a17.28,17.28,0,0,1-10.9,7.5,16.77,16.77,0,0,1-6.7.1A19.53,19.53,0,0,1,133.3,668.2Zm3-4.5a10.48,10.48,0,0,0,4.3,1.7,10.82,10.82,0,0,0,4.4-.2,12.26,12.26,0,0,0,4-1.9,11.58,11.58,0,0,0,3.2-3.4l.1-.1a14.89,14.89,0,0,0,1.9-4.3,11.37,11.37,0,0,0,.1-4.5,11,11,0,0,0-1.6-4.1,11.44,11.44,0,0,0-7.6-5,10.82,10.82,0,0,0-4.4.2,12.26,12.26,0,0,0-4,1.9,11.58,11.58,0,0,0-3.2,3.4l-.1.1a14.89,14.89,0,0,0-1.9,4.3,11.37,11.37,0,0,0-.1,4.5,11,11,0,0,0,1.6,4.1A12.94,12.94,0,0,0,136.3,663.7Z" transform="translate(-13.7 -121.7)"/><path class="cls-2" d="M175.5,654.1l5.7,2.5,2.9,18.7,15.8-10.4,5.7,2.5L192,698.1l-5.4-2.4,9.8-22-16.1,10.2-.2-.1-3.2-18.7L167.2,687l-5.4-2.4Z" transform="translate(-13.7 -121.7)"/><path class="cls-2" d="M231.4,675.5l6.4,1.2,5.1,27.3,14.8-23.5,6.3,1.2-20.1,30.6-5.1-1Z" transform="translate(-13.7 -121.7)"/><path class="cls-2" d="M272.8,682.5l24.8,1.3-.3,5.3-19-1-.4,8.6,16.8.9-.3,5.3-16.8-.9-.5,9,19.2,1-.3,5.3L270.9,716Z" transform="translate(-13.7 -121.7)"/><path class="cls-2" d="M307.9,683.6l5.8-.5L315,697l16.1-1.4-1.2-13.9,5.8-.5,3,33.5-5.8.5-1.3-14.1-16.1,1.4,1.3,14.1-5.8.5Z" transform="translate(-13.7 -121.7)"/><path class="cls-2" d="M347.8,678.8l5.7-1.2,6.7,32.9-5.7,1.2Z" transform="translate(-13.7 -121.7)"/><path class="cls-2" d="M391,702.8a18.15,18.15,0,0,1-6.9.8,15.4,15.4,0,0,1-6.3-1.9,18.07,18.07,0,0,1-5.1-4.1,16.39,16.39,0,0,1-3.3-6.1v-.1a17.87,17.87,0,0,1-.8-6.8,17.46,17.46,0,0,1,1.8-6.4,17.17,17.17,0,0,1,4.1-5.2,16,16,0,0,1,6.3-3.4,16.91,16.91,0,0,1,4.1-.9,21.61,21.61,0,0,1,3.6,0,19.42,19.42,0,0,1,3.3.7,19.78,19.78,0,0,1,3.1,1.2l-2.3,5.3a19.37,19.37,0,0,0-5-1.6,10.42,10.42,0,0,0-5.2.5,10.69,10.69,0,0,0-3.9,2.2,11,11,0,0,0-2.6,3.5,10.43,10.43,0,0,0-1,4.3,12.17,12.17,0,0,0,.6,4.6v.1a13,13,0,0,0,2.2,4.2,11.68,11.68,0,0,0,3.4,2.9,12.47,12.47,0,0,0,4.1,1.4,10,10,0,0,0,4.5-.5,10.8,10.8,0,0,0,4.7-2.7,19.22,19.22,0,0,0,3.2-4.4l4.8,2.5a33,33,0,0,1-1.8,3.2,20.41,20.41,0,0,1-2.3,2.7,16.56,16.56,0,0,1-3,2.2A19.69,19.69,0,0,1,391,702.8Z" transform="translate(-13.7 -121.7)"/><path class="cls-2" d="M402.1,662.4l5.3-2.5,12.1,25.5,15.9-7.6,2.3,4.8-21.2,10.1Z" transform="translate(-13.7 -121.7)"/><path class="cls-2" d="M431.5,647.7l20.9-13.5,2.9,4.5-16,10.3,4.7,7.3,14.2-9.1,2.9,4.5-14.2,9.1,4.9,7.5L468,657.9l2.9,4.5L449.8,676Z" transform="translate(-13.7 -121.7)"/><path class="cls-2" d="M491.8,646.2a22.59,22.59,0,0,1-6.5,3.8,21.26,21.26,0,0,1-7.6,1.2v-5.5a21.71,21.71,0,0,0,5.9-.7,13.61,13.61,0,0,0,5.1-2.8,7.9,7.9,0,0,0,2.6-3.7,3.52,3.52,0,0,0-.8-3.4l-.1-.1a3.05,3.05,0,0,0-1.3-1,4.31,4.31,0,0,0-1.7-.3,9.87,9.87,0,0,0-2.5.6,27.44,27.44,0,0,0-3.6,1.7,42.88,42.88,0,0,1-4.6,2,11.8,11.8,0,0,1-3.9.8,7.67,7.67,0,0,1-3.4-.7,10,10,0,0,1-3.1-2.5l-.1-.1a9,9,0,0,1-1.9-3.6,10.27,10.27,0,0,1-.2-3.9,10.48,10.48,0,0,1,1.5-3.9,16.4,16.4,0,0,1,3-3.5,20.88,20.88,0,0,1,5.8-3.5,22,22,0,0,1,6.3-1.2l.5,5.5a19.22,19.22,0,0,0-5.1,1,12.75,12.75,0,0,0-4.1,2.3,6.13,6.13,0,0,0-2.3,3.5,3.74,3.74,0,0,0,.7,3.1l.1.1a4.86,4.86,0,0,0,1.4,1.1,3.46,3.46,0,0,0,1.8.2,11.33,11.33,0,0,0,2.6-.7c1-.4,2.3-1,3.7-1.7,1.6-.8,3.2-1.4,4.5-1.9a11.51,11.51,0,0,1,3.9-.7,7.31,7.31,0,0,1,3.3.8,10.12,10.12,0,0,1,2.9,2.3l.1.1a11.05,11.05,0,0,1,2.1,3.8,9,9,0,0,1,.2,4,10.76,10.76,0,0,1-1.6,3.9A40.73,40.73,0,0,1,491.8,646.2Z" transform="translate(-13.7 -121.7)"/><path class="cls-2" d="M498.6,591.9l3.7-4.6L524.4,605l11-13.8,4.2,3.3-14.7,18.4Z" transform="translate(-13.7 -121.7)"/><path class="cls-2" d="M527.6,561.6l-5.6,9.1-4.7-2.8,14.2-23.3,4.7,2.8-5.6,9.1,24,14.6-3.1,5.1Z" transform="translate(-13.7 -121.7)"/><path class="cls-2" d="M535.8,536.3l4.9-11.5a19,19,0,0,1,4-6.1,17,17,0,0,1,5.5-3.8,15.14,15.14,0,0,1,6.3-1.3,17.39,17.39,0,0,1,6.6,1.4h.1a16.83,16.83,0,0,1,5.6,3.8,15,15,0,0,1,3.4,5.5,16.06,16.06,0,0,1,1,6.6,18.44,18.44,0,0,1-1.7,7.1l-4.9,11.5Zm30.9-.3a11.89,11.89,0,0,0,1.1-4.7,10.25,10.25,0,0,0-3.1-7.9,12.1,12.1,0,0,0-3.9-2.6h-.1a12.2,12.2,0,0,0-4.5-1,12.51,12.51,0,0,0-4.3.7,10.33,10.33,0,0,0-3.6,2.4,13.29,13.29,0,0,0-2.7,4.1l-2.6,6.1,21.1,9.1Z" transform="translate(-13.7 -121.7)"/><rect class="cls-2" x="29.1" y="293.4" width="54" height="12.9"/><rect class="cls-2" x="483" y="293.4" width="54" height="12.9"/><g class="cls-3"><polygon class="cls-2" points="144.6 435.8 144.6 168.9 159.8 168.9 159.8 403.8 280.5 305.7 403.4 404 403.4 168.9 418.6 168.9 418.6 435.6 280.6 325.3 144.6 435.8"/><polygon class="cls-2" points="202.1 312.5 202.1 132.9 217.3 132.9 217.3 279.7 280.5 226.6 345.9 280.1 345.9 132.9 361.1 132.9 361.1 312.1 280.6 246.3 202.1 312.5"/></g></svg>