<svg id="Layer_1" data-name="Layer 1" xmlns="http://www.w3.org/2000/svg" xmlns:xlink="http://www.w3.org/1999/xlink" viewBox="0 0 180.8 179.65"><defs><style>.cls-1{fill:none;}.cls-2,.cls-3{fill:#fff;}.cls-3{stroke:#fff;stroke-miterlimit:10;stroke-width:1.87px;}.cls-4{clip-path:url(#clip-path);}</style><clipPath id="clip-path" transform="translate(22.93 46.01)"><rect class="cls-1" x="-9.52" y="11.36" width="149.98" height="152.68" transform="translate(81.19 -20.61) rotate(45)"/></clipPath></defs><title>logo</title><path class="cls-2" d="M-12.13-1l3.26-3.89,14,5.93L-3-12l2.6-3.11L14-9.44,5.65-22.22,8.83-26,20.74-6.47,18.1-3.31,4.18-8.61,11.86,4.15,9.22,7.31Z" transform="translate(22.93 46.01)"/><path class="cls-2" d="M18.36-31.29l4-2.48L33.67-15.42l-4,2.48Z" transform="translate(22.93 46.01)"/><path class="cls-2" d="M31.7-38.71l4.48-1.54,5.59,16.32L51.93-27.4l1.39,4-14.63,5Z" transform="translate(22.93 46.01)"/><path class="cls-2" d="M64.71-23.92a14.24,14.24,0,0,1-4.86-.62,12.77,12.77,0,0,1-4.42-2.4l2.64-3.48a14,14,0,0,0,3.11,1.76,8.09,8.09,0,0,0,3.43.55,4.14,4.14,0,0,0,2.26-.64,1.69,1.69,0,0,0,.75-1.53v-0.06a1.87,1.87,0,0,0-.21-0.81,1.72,1.72,0,0,0-.68-0.63,6.83,6.83,0,0,0-1.35-.55q-0.86-.27-2.23-0.54a27,27,0,0,1-3-.75,8.32,8.32,0,0,1-2.3-1.11,4.9,4.9,0,0,1-1.51-1.73,6.24,6.24,0,0,1-.63-2.65v-0.06a6.24,6.24,0,0,1,.43-2.68A6.06,6.06,0,0,1,57.57-44a6.93,6.93,0,0,1,2.31-1.43,9.52,9.52,0,0,1,3-.6,12.89,12.89,0,0,1,4.38.51A12.64,12.64,0,0,1,71-43.63L68.71-40a15.61,15.61,0,0,0-2.9-1.42A7.23,7.23,0,0,0,63-41.82a3.35,3.35,0,0,0-2,.63,1.64,1.64,0,0,0-.63,1.37v0.06a1.94,1.94,0,0,0,.24.9,1.81,1.81,0,0,0,.76.66,6.78,6.78,0,0,0,1.46.52q0.92,0.23,2.32.54a22,22,0,0,1,3,.83,8.14,8.14,0,0,1,2.22,1.19,4.92,4.92,0,0,1,1.41,1.71A6,6,0,0,1,72.26-31v0.06a6.66,6.66,0,0,1-.45,2.87,5.84,5.84,0,0,1-1.52,2.16,7.3,7.3,0,0,1-2.42,1.4A10.79,10.79,0,0,1,64.71-23.92Z" transform="translate(22.93 46.01)"/><path class="cls-2" d="M86.61-21.19a11.74,11.74,0,0,1-4.15-2.13,11.39,11.39,0,0,1-2.8-3.29,10.59,10.59,0,0,1-1.29-4,11,11,0,0,1,.4-4.38l0-.06a10.87,10.87,0,0,1,2-3.91,11.14,11.14,0,0,1,3.28-2.73A11.09,11.09,0,0,1,88.26-43a11.84,11.84,0,0,1,4.66.45,11.73,11.73,0,0,1,4.15,2.13,11.39,11.39,0,0,1,2.8,3.29,10.6,10.6,0,0,1,1.29,4,11.05,11.05,0,0,1-.4,4.38l0,0.06a10.88,10.88,0,0,1-2,3.91A11.14,11.14,0,0,1,95.43-22a11.09,11.09,0,0,1-4.16,1.28A11.85,11.85,0,0,1,86.61-21.19Zm1.28-4.17a6.46,6.46,0,0,0,2.66.23,6,6,0,0,0,2.37-.81,6.81,6.81,0,0,0,1.87-1.68A7.06,7.06,0,0,0,96-30L96-30a7.19,7.19,0,0,0,.28-2.64,6.51,6.51,0,0,0-.69-2.45,6.51,6.51,0,0,0-1.58-2,6.32,6.32,0,0,0-2.36-1.25A6.45,6.45,0,0,0,89-38.6a6,6,0,0,0-2.35.82,6.81,6.81,0,0,0-1.87,1.68,7,7,0,0,0-1.19,2.36l0,0.06A7.17,7.17,0,0,0,83.26-31,6.49,6.49,0,0,0,84-28.59a6.54,6.54,0,0,0,1.57,2A6.28,6.28,0,0,0,87.9-25.36Z" transform="translate(22.93 46.01)"/><path class="cls-2" d="M114.19-33.34l3.48,2.64,0,16.66,8-10.57,3.73,2.82-13,17.16-3.21-2.43,0-17.2-8.26,10.91-3.73-2.82Z" transform="translate(22.93 46.01)"/><path class="cls-2" d="M123.89,5.86a14.24,14.24,0,0,1-2.05-4.45,12.78,12.78,0,0,1-.31-5l4.35,0.4A14,14,0,0,0,126,.36a8.1,8.1,0,0,0,1.35,3.2,4.14,4.14,0,0,0,1.75,1.58A1.7,1.7,0,0,0,130.82,5l0.05,0a1.86,1.86,0,0,0,.57-0.6,1.72,1.72,0,0,0,.18-0.91A6.79,6.79,0,0,0,131.37,2q-0.23-.87-0.72-2.18a26.82,26.82,0,0,1-.95-2.94,8.31,8.31,0,0,1-.28-2.54,4.91,4.91,0,0,1,.66-2.2A6.24,6.24,0,0,1,132-9.83l0.05,0a6.24,6.24,0,0,1,2.5-1.06,6.05,6.05,0,0,1,2.56.11,6.93,6.93,0,0,1,2.44,1.2,9.51,9.51,0,0,1,2.11,2.24,12.88,12.88,0,0,1,1.89,4,12.63,12.63,0,0,1,.4,4.15h-4.33a15.63,15.63,0,0,0-.33-3.21,7.24,7.24,0,0,0-1.11-2.6,3.35,3.35,0,0,0-1.62-1.4,1.63,1.63,0,0,0-1.49.19l-0.05,0a1.94,1.94,0,0,0-.63.68,1.81,1.81,0,0,0-.16,1,6.82,6.82,0,0,0,.33,1.51q0.29,0.91.78,2.26a22.12,22.12,0,0,1,.86,2.95,8.15,8.15,0,0,1,.16,2.51,4.92,4.92,0,0,1-.7,2.1,6,6,0,0,1-1.74,1.75l-0.05,0a6.65,6.65,0,0,1-2.67,1.14,5.84,5.84,0,0,1-2.64-.14,7.29,7.29,0,0,1-2.47-1.3A10.77,10.77,0,0,1,123.89,5.86Z" transform="translate(22.93 46.01)"/><path class="cls-2" d="M-7,73.71l0.47,1-8.26,3.75,2.36,5.19-1,.44-2.83-6.23Z" transform="translate(22.93 46.01)"/><path class="cls-2" d="M-2.7,82.62l3.85,6.23-0.87.54L-3,84.13l-3,1.84L-3,90.67l-0.87.54-2.91-4.7-3,1.87,3.29,5.32-0.87.54L-11.31,88Z" transform="translate(22.93 46.01)"/><path class="cls-2" d="M3.29,91.65L4,92.55l-8,6.16-0.7-.91Z" transform="translate(22.93 46.01)"/><path class="cls-2" d="M1.36,105.27a6,6,0,0,1-1.22-1.9,6.35,6.35,0,0,1-.42-2.24l1.1-.05A6,6,0,0,0,1.13,103a4.61,4.61,0,0,0,1,1.61,2.58,2.58,0,0,0,1.48.87,1.51,1.51,0,0,0,1.32-.39l0,0a1.63,1.63,0,0,0,.38-0.51,1.3,1.3,0,0,0,.1-0.65A2.91,2.91,0,0,0,5.2,103a10.17,10.17,0,0,0-.63-1.21,10.44,10.44,0,0,1-.72-1.4,3.78,3.78,0,0,1-.29-1.18,2.18,2.18,0,0,1,.17-1,2.69,2.69,0,0,1,.65-0.89l0,0a2.48,2.48,0,0,1,1-.57,2.58,2.58,0,0,1,1.11-.09A3.39,3.39,0,0,1,7.63,97a4.07,4.07,0,0,1,1.06.83,5.55,5.55,0,0,1,1.1,1.64,5.92,5.92,0,0,1,.42,1.82l-1.1.12a5,5,0,0,0-.36-1.61,4.33,4.33,0,0,0-.83-1.27A2.43,2.43,0,0,0,6.5,97.7a1.44,1.44,0,0,0-1.25.37l0,0a1.68,1.68,0,0,0-.39.52,1.31,1.31,0,0,0-.09.66,3.08,3.08,0,0,0,.25.91,10.22,10.22,0,0,0,.67,1.26A6,6,0,0,1,6.61,104a2.24,2.24,0,0,1-.79,1.83l0,0a2.66,2.66,0,0,1-1,.62,2.7,2.7,0,0,1-1.15.1,3.17,3.17,0,0,1-1.17-.4A4.55,4.55,0,0,1,1.36,105.27Z" transform="translate(22.93 46.01)"/><path class="cls-2" d="M10.23,113.55a5,5,0,0,1-1.15-1.3,3.61,3.61,0,0,1-.5-1.49,3.77,3.77,0,0,1,.2-1.62,5.45,5.45,0,0,1,1-1.66l3.72-4.57,0.89,0.72-3.67,4.51a3.59,3.59,0,0,0-1,2.48,3,3,0,0,0,1.21,2.12,3,3,0,0,0,2.26.75,3.43,3.43,0,0,0,2.22-1.42l3.72-4.57L20,108.23l-3.66,4.5a5.73,5.73,0,0,1-1.47,1.32,3.81,3.81,0,0,1-1.55.55,3.56,3.56,0,0,1-1.57-.18A5,5,0,0,1,10.23,113.55Z" transform="translate(22.93 46.01)"/><path class="cls-2" d="M22.95,110.25l3.74,2.23a4.85,4.85,0,0,1,1.3,1.09,3.28,3.28,0,0,1,.66,1.26,2.61,2.61,0,0,1,0,1.05,3,3,0,0,1-.4,1.06v0a3,3,0,0,1-.76.87,2.59,2.59,0,0,1-.94.45,3.09,3.09,0,0,1-1.06.07,4.24,4.24,0,0,1-1.12-.27L25,123.24l-1.21-.72-0.51-4.89h0l-2.46-1.47-2,3.38-1-.59Zm1,6.62a3.6,3.6,0,0,0,1,.41,2.56,2.56,0,0,0,.92.07,1.85,1.85,0,0,0,1.42-.93v0a1.75,1.75,0,0,0,.17-1.61,3.06,3.06,0,0,0-1.37-1.43l-2.69-1.6-2.1,3.53Z" transform="translate(22.93 46.01)"/><path class="cls-2" d="M32.84,115.82l6.75,2.85-0.4.95-5.69-2.4-1.36,3.21,5.09,2.15-0.4.95-5.09-2.15-1.38,3.28,5.76,2.43-0.4.95-6.81-2.88Z" transform="translate(22.93 46.01)"/><path class="cls-2" d="M47.15,121.06l1.25,0.24,1.9,9.25,5.19-7.89,1.21,0.23-6.2,9.2-1-.19Z" transform="translate(22.93 46.01)"/><path class="cls-2" d="M59.57,123.13l7.31,0.38-0.05,1-6.17-.32-0.18,3.48L66,128l-0.05,1-5.52-.28-0.18,3.55,6.24,0.32-0.05,1L59,133.25Z" transform="translate(22.93 46.01)"/><path class="cls-2" d="M70.16,123.47l1.14-.1,0.4,4.48,5.82-.51-0.4-4.48,1.14-.1,0.89,10.09-1.14.1-0.4-4.54-5.82.51,0.4,4.54-1.14.1Z" transform="translate(22.93 46.01)"/><path class="cls-2" d="M82.18,122l1.12-.22,2,9.93-1.12.22Z" transform="translate(22.93 46.01)"/><path class="cls-2" d="M94.69,129.41a5,5,0,0,1-5.43-1.62,5.42,5.42,0,0,1-1-1.83v0a5.39,5.39,0,0,1-.24-2,5.24,5.24,0,0,1,.52-1.91,5,5,0,0,1,1.21-1.56,5.06,5.06,0,0,1,1.84-1,6.19,6.19,0,0,1,1.23-.26,5.23,5.23,0,0,1,1.08,0,4.68,4.68,0,0,1,1,.22,7.65,7.65,0,0,1,.94.39l-0.49,1a6.38,6.38,0,0,0-1.63-.54,3.91,3.91,0,0,0-4.14,2.14,4.11,4.11,0,0,0-.39,1.51,4.45,4.45,0,0,0,.2,1.64v0a4.45,4.45,0,0,0,.77,1.48,4.08,4.08,0,0,0,1.18,1,3.89,3.89,0,0,0,1.45.48,3.72,3.72,0,0,0,1.58-.15,3.91,3.91,0,0,0,1.6-.9A6.25,6.25,0,0,0,97.09,126L98,126.5a7.21,7.21,0,0,1-.56.94,5.05,5.05,0,0,1-.71.81,5.24,5.24,0,0,1-.9.66A5.62,5.62,0,0,1,94.69,129.41Z" transform="translate(22.93 46.01)"/><path class="cls-2" d="M98.15,117.2l1-.49,3.85,8.22,5.16-2.42,0.45,1-6.2,2.91Z" transform="translate(22.93 46.01)"/><path class="cls-2" d="M107,112.8l6.18-3.93,0.55,0.87-5.21,3.32,1.87,2.94,4.66-3,0.55,0.87-4.66,3,1.91,3,5.27-3.36,0.55,0.87-6.24,4Z" transform="translate(22.93 46.01)"/><path class="cls-2" d="M125.11,112.53a6,6,0,0,1-2,1.12,6.33,6.33,0,0,1-2.25.29v-1.1a6,6,0,0,0,1.92-.2,4.62,4.62,0,0,0,1.66-.93,2.58,2.58,0,0,0,.95-1.43,1.51,1.51,0,0,0-.32-1.34l0,0a1.63,1.63,0,0,0-.49-0.41,1.29,1.29,0,0,0-.64-0.13,2.89,2.89,0,0,0-.89.19,10.36,10.36,0,0,0-1.24.56,10.49,10.49,0,0,1-1.44.64,3.78,3.78,0,0,1-1.2.23,2.18,2.18,0,0,1-1-.22,2.69,2.69,0,0,1-.85-0.7l0,0a2.48,2.48,0,0,1-.52-1,2.58,2.58,0,0,1,0-1.12,3.38,3.38,0,0,1,.44-1.12,4.06,4.06,0,0,1,.89-1,5.55,5.55,0,0,1,1.69-1,5.92,5.92,0,0,1,1.84-.32l0.06,1.1a5,5,0,0,0-1.63.27,4.37,4.37,0,0,0-1.32.76,2.43,2.43,0,0,0-.91,1.37,1.44,1.44,0,0,0,.3,1.26l0,0a1.67,1.67,0,0,0,.5.42,1.3,1.3,0,0,0,.66.13,3.08,3.08,0,0,0,.92-0.21,10.09,10.09,0,0,0,1.29-.6,6,6,0,0,1,2.58-.8,2.24,2.24,0,0,1,1.79.88l0,0a2.66,2.66,0,0,1,.56,1.07,2.71,2.71,0,0,1,0,1.15,3.18,3.18,0,0,1-.46,1.14A4.56,4.56,0,0,1,125.11,112.53Z" transform="translate(22.93 46.01)"/><path class="cls-2" d="M127.29,96.13l0.72-.89,7.05,5.71,3.59-4.43,0.82,0.66-4.31,5.32Z" transform="translate(22.93 46.01)"/><path class="cls-2" d="M135.65,86.58l-1.79,2.89-0.9-.56,4.18-6.75,0.9,0.56-1.79,2.89L144,90.38l-0.6,1Z" transform="translate(22.93 46.01)"/><path class="cls-2" d="M138.57,79.48L140,76.26a6,6,0,0,1,1.23-1.84,5.13,5.13,0,0,1,1.66-1.14,4.74,4.74,0,0,1,1.91-.37,5,5,0,0,1,2,.44h0a5.09,5.09,0,0,1,1.67,1.16,4.72,4.72,0,0,1,1,1.66,5.25,5.25,0,0,1,.3,2,5.89,5.89,0,0,1-.52,2.15l-1.41,3.22Zm9.72,0.42a4.75,4.75,0,0,0,.42-1.71,3.82,3.82,0,0,0-.24-1.55,3.71,3.71,0,0,0-.82-1.28,4.13,4.13,0,0,0-1.32-.9h0a4.15,4.15,0,0,0-1.56-.36,3.81,3.81,0,0,0-1.5.26,3.88,3.88,0,0,0-1.31.87,4.64,4.64,0,0,0-1,1.47l-1,2.17,7.34,3.22Z" transform="translate(22.93 46.01)"/><rect class="cls-3" x="0.93" y="86.56" width="21.68" height="1.81"/><rect class="cls-3" x="158.18" y="86.56" width="21.68" height="1.81"/><g class="cls-4"><polygon class="cls-2" points="49.4 135.87 49.4 56.37 53.93 56.37 53.93 126.34 89.87 97.13 126.48 126.39 126.48 56.37 131.02 56.37 131.02 135.81 89.9 102.95 49.4 135.87"/><polygon class="cls-2" points="66.53 99.13 66.53 45.66 71.06 45.66 71.06 89.39 89.86 73.55 109.36 89.48 109.36 45.66 113.89 45.66 113.89 99.04 89.91 79.43 66.53 99.13"/></g></svg>