<?xml version="1.0" encoding="utf-8"?>
<!-- Generator: Adobe Illustrator 18.0.0, SVG Export Plug-In . SVG Version: 6.00 Build 0)  -->
<!DOCTYPE svg PUBLIC "-//W3C//DTD SVG 1.1//EN" "http://www.w3.org/Graphics/SVG/1.1/DTD/svg11.dtd">
<svg version="1.1" id="Layer_1" xmlns="http://www.w3.org/2000/svg" xmlns:xlink="http://www.w3.org/1999/xlink" x="0px" y="0px"
	 viewBox="0 0 595.3 841.9" enable-background="new 0 0 595.3 841.9" xml:space="preserve">
<g>
	<g>
		<path d="M557.5,333.5c-0.8-2.4-1.6-4.7-2.5-7l24.3-9c0.9,2.5,1.8,5.1,2.7,7.7L557.5,333.5z M38.2,333.4l-24.5-8.3
			c0.9-2.5,1.8-5.1,2.7-7.6l24.3,9C39.9,328.7,39,331,38.2,333.4z M545.4,303.8c-1.1-2.2-2.2-4.5-3.3-6.7l23.1-11.8
			c1.2,2.4,2.4,4.9,3.6,7.3L545.4,303.8z M50.3,303.7l-23.4-11.1c1.1-2.4,2.4-4.9,3.6-7.3L53.6,297
			C52.5,299.2,51.4,301.5,50.3,303.7z M529.9,275.6c-1.3-2.1-2.7-4.2-4-6.2l21.5-14.4c1.5,2.2,3,4.5,4.4,6.8L529.9,275.6z
			 M65.8,275.6l-21.9-13.8c1.4-2.3,2.9-4.5,4.4-6.8l21.5,14.4C68.4,271.4,67.1,273.5,65.8,275.6z M511.3,249.5
			c-1.5-1.9-3.1-3.8-4.7-5.7l19.7-16.8c1.7,2.1,3.5,4.2,5.2,6.2L511.3,249.5z M84.4,249.4l-20.1-16.3c1.7-2.1,3.4-4.2,5.2-6.2
			l19.7,16.8C87.6,245.6,86,247.5,84.4,249.4z M489.7,225.7c-1.7-1.7-3.5-3.4-5.4-5.1l17.6-19c2,1.8,4,3.7,5.9,5.6L489.7,225.7z
			 M106,225.7l-18.1-18.5c1.9-1.9,3.9-3.8,5.9-5.6l17.6,19C109.6,222.2,107.8,223.9,106,225.7z M465.5,204.6c-1.9-1.5-3.9-3-5.9-4.5
			l15.3-20.9c2.2,1.6,4.3,3.2,6.5,4.9L465.5,204.6z M130.2,204.6l-15.8-20.5c2.1-1.7,4.3-3.3,6.5-4.9l15.3,20.9
			C134.2,201.5,132.2,203,130.2,204.6z M439,186.5c-2.1-1.3-4.3-2.5-6.4-3.7l12.7-22.5c2.3,1.3,4.7,2.7,7,4.1L439,186.5z
			 M156.7,186.4l-13.4-22.2c2.3-1.4,4.7-2.8,7-4.1l12.7,22.5C161,183.9,158.8,185.1,156.7,186.4z M410.6,171.5c-2.2-1-4.5-2-6.8-3
			l10-23.9c2.5,1,5,2.1,7.4,3.2L410.6,171.5z M185.2,171.5l-10.7-23.6c2.5-1.1,5-2.2,7.5-3.2l10,23.9
			C189.7,169.5,187.4,170.5,185.2,171.5z M380.6,160.1c-2.4-0.7-4.7-1.5-7.1-2.1l7.1-24.9c2.6,0.7,5.2,1.5,7.8,2.3L380.6,160.1z
			 M215.2,160l-7.8-24.7c2.6-0.8,5.2-1.6,7.8-2.3l7.1,24.9C219.9,158.6,217.5,159.3,215.2,160z M349.5,152.2
			c-2.4-0.5-4.9-0.9-7.3-1.3l4.2-25.5c2.6,0.4,5.3,0.9,8,1.4L349.5,152.2z M246.3,152.2l-4.8-25.4c2.6-0.5,5.3-1,8-1.4l4.1,25.6
			C251.2,151.3,248.7,151.7,246.3,152.2z M317.7,148.1c-2.5-0.2-5-0.3-7.4-0.4l1.1-25.9c2.7,0.1,5.4,0.3,8.1,0.5L317.7,148.1z
			 M278.2,148l-1.8-25.8c2.7-0.2,5.4-0.3,8.1-0.5l1.1,25.9C283.1,147.7,280.6,147.9,278.2,148z"/>
	</g>
	<g>
		<path d="M265,589l26.7-22.4c2.5-2.1,4.7-4,6.4-5.7c1.8-1.7,3.2-3.3,4.3-4.8c1.1-1.5,1.9-3,2.4-4.4c0.5-1.4,0.7-3,0.7-4.7
			c0-3.5-1.1-6.1-3.1-7.8c-2-1.7-4.7-2.6-7.9-2.6c-3.2,0-5.9,1-8.4,2.8c-2.4,1.8-5.1,4.6-8.1,8.3l-12.6-9.9c2-2.7,4-5.2,6-7.3
			c2-2.1,4.2-3.9,6.5-5.4c2.3-1.5,4.9-2.6,7.8-3.4c2.8-0.8,6.1-1.2,9.7-1.2c4.2-0.1,8,0.5,11.4,1.7c3.4,1.2,6.4,2.8,8.9,4.9
			c2.5,2.1,4.4,4.7,5.8,7.8c1.4,3.1,2.1,6.5,2.1,10.3l0,0.2c0,3.4-0.4,6.4-1.2,9.1c-0.9,2.7-2.1,5.2-3.8,7.6
			c-1.7,2.4-3.9,4.8-6.6,7.1c-2.7,2.4-5.8,5-9.3,7.8l-13.1,10.3l35.3-0.4l0.2,15.4l-59.9,0.7L265,589z"/>
	</g>
	<g>
		<g>
			<path d="M26.8,544.7c-1-2.2-1.6-4.5-1.6-6.8c-0.1-2.3,0.3-4.4,1.1-6.5c0.8-2,1.9-3.9,3.5-5.6c1.6-1.7,3.4-3,5.6-4l0.1,0
				c2.2-1,4.4-1.5,6.7-1.6c2.3-0.1,4.4,0.2,6.5,1c2.1,0.7,4,1.9,5.7,3.4c1.7,1.5,3.1,3.5,4.2,5.8c0.6,1.4,1.1,2.7,1.4,4
				c0.3,1.3,0.4,2.5,0.5,3.6c0,1.2-0.1,2.3-0.3,3.4c-0.2,1.1-0.5,2.1-0.9,3.2l-5.5-1.6c0.6-1.7,0.9-3.5,1-5.1
				c0.1-1.7-0.3-3.4-1.1-5.1c-0.7-1.5-1.6-2.7-2.7-3.6c-1.1-1-2.4-1.7-3.8-2.2c-1.4-0.5-2.8-0.6-4.4-0.5c-1.5,0.1-3,0.5-4.5,1.2
				l-0.1,0c-1.5,0.7-2.8,1.6-3.9,2.7c-1.1,1.1-1.9,2.3-2.5,3.7c-0.6,1.4-0.9,2.8-0.9,4.3c0,1.5,0.3,3,1,4.4c0.9,1.9,1.9,3.3,3.3,4.3
				c1.3,1,2.9,1.9,4.7,2.6l-1.9,5c-1.2-0.4-2.3-0.9-3.4-1.4c-1-0.6-2-1.2-3-2c-0.9-0.8-1.8-1.7-2.6-2.8
				C28.1,547.4,27.4,546.1,26.8,544.7z"/>
			<path d="M46.9,580.9c-1.2-1.8-2-3.6-2.4-5.5c-0.4-1.8-0.5-3.6-0.1-5.3c0.4-1.7,1.1-3.4,2.3-4.9c1.2-1.6,2.8-3,4.8-4.3l16.2-10.5
				l3.2,4.9l-16,10.4c-2.6,1.7-4.2,3.6-4.8,5.8c-0.5,2.2-0.1,4.4,1.4,6.6c1.4,2.2,3.2,3.5,5.4,3.9c2.1,0.4,4.5-0.2,7.1-1.9
				l16.2-10.5l3.2,4.9l-16,10.4c-2.1,1.4-4.1,2.3-6.1,2.7c-2,0.5-3.8,0.5-5.5,0.1s-3.4-1.1-4.8-2.3
				C49.4,584.3,48.1,582.8,46.9,580.9z"/>
			<path d="M72.2,614.5c-1.7-2-3-4.1-3.9-6.5c-0.9-2.4-1.3-4.9-1.2-7.6l5.5-0.1c0,2.2,0.3,4.1,0.8,5.9c0.5,1.8,1.5,3.4,2.8,5
				c1.2,1.4,2.4,2.2,3.7,2.5c1.3,0.3,2.4,0,3.4-0.8l0.1-0.1c0.5-0.4,0.8-0.8,1-1.3c0.2-0.5,0.3-1,0.2-1.7c-0.1-0.7-0.3-1.5-0.6-2.5
				c-0.4-1-0.9-2.2-1.7-3.6c-0.9-1.6-1.5-3.1-2.1-4.5c-0.5-1.4-0.8-2.7-0.8-3.9c-0.1-1.2,0.2-2.4,0.7-3.4c0.5-1.1,1.3-2.1,2.5-3.1
				l0.1-0.1c1.1-0.9,2.3-1.6,3.6-1.9c1.3-0.4,2.6-0.4,3.9-0.2c1.3,0.2,2.6,0.7,3.9,1.4c1.3,0.7,2.5,1.8,3.6,3
				c1.6,1.9,2.8,3.8,3.5,5.7c0.7,2,1.2,4,1.2,6.2l-5.5,0.5c-0.2-1.9-0.5-3.6-1-5.1s-1.3-2.9-2.3-4c-1.1-1.3-2.3-2.1-3.5-2.3
				c-1.2-0.2-2.2,0-3.1,0.8l-0.1,0.1c-0.5,0.4-0.8,0.9-1.1,1.4c-0.2,0.5-0.3,1.1-0.2,1.8c0.1,0.7,0.3,1.6,0.7,2.6
				c0.4,1,1,2.3,1.8,3.7c0.8,1.6,1.5,3.1,1.9,4.5c0.5,1.4,0.7,2.7,0.7,3.9c0,1.2-0.2,2.3-0.7,3.3c-0.5,1-1.2,2-2.3,2.9l-0.1,0.1
				c-1.2,1-2.4,1.7-3.8,2.1c-1.3,0.4-2.7,0.4-4,0.2c-1.3-0.2-2.7-0.8-4-1.6C74.6,616.9,73.4,615.8,72.2,614.5z"/>
			<path d="M115.5,618l-7.9-7.1l3.7-4.1l20.3,18.2l-3.7,4.1L120,622l-18.8,21l-4.4-4L115.5,618z"/>
			<path d="M133.3,668.2c-2.2-1.4-3.9-3.1-5.2-5.1c-1.3-1.9-2.1-4-2.6-6.1c-0.4-2.2-0.4-4.3,0-6.6c0.4-2.2,1.3-4.3,2.6-6.3l0.1-0.1
				c1.3-2,2.9-3.6,4.8-4.9c1.9-1.3,3.9-2.1,6.1-2.6c2.2-0.5,4.4-0.5,6.7-0.1c2.3,0.4,4.5,1.3,6.7,2.8c2.2,1.4,3.9,3.1,5.2,5.1
				c1.3,1.9,2.1,4,2.6,6.1c0.4,2.2,0.4,4.3,0,6.6s-1.3,4.3-2.6,6.3l-0.1,0.1c-1.3,2-2.9,3.6-4.8,4.9c-1.9,1.3-3.9,2.1-6.1,2.6
				c-2.2,0.5-4.4,0.5-6.7,0.1C137.7,670.5,135.4,669.6,133.3,668.2z M136.3,663.7c1.4,0.9,2.8,1.5,4.3,1.7c1.5,0.2,3,0.2,4.4-0.2
				c1.4-0.4,2.8-1,4-1.9c1.3-0.9,2.3-2,3.2-3.4l0.1-0.1c0.9-1.4,1.5-2.8,1.9-4.3c0.3-1.5,0.4-3,0.1-4.5c-0.2-1.4-0.8-2.8-1.6-4.1
				c-0.8-1.3-1.9-2.4-3.3-3.3c-1.4-0.9-2.8-1.5-4.3-1.7c-1.5-0.2-3-0.2-4.4,0.2c-1.4,0.4-2.8,1-4,1.9c-1.3,0.9-2.3,2-3.2,3.4
				l-0.1,0.1c-0.9,1.4-1.5,2.8-1.9,4.3c-0.3,1.5-0.4,3-0.1,4.5c0.2,1.4,0.8,2.8,1.6,4.1C133.9,661.7,135,662.8,136.3,663.7z"/>
			<path d="M175.5,654.1l5.7,2.5l2.9,18.7l15.8-10.4l5.7,2.5l-13.6,30.7l-5.4-2.4l9.8-22l-16.1,10.2l-0.2-0.1l-3.2-18.7l-9.7,21.9
				l-5.4-2.4L175.5,654.1z"/>
			<path d="M231.4,675.5l6.4,1.2l5.1,27.3l14.8-23.5l6.3,1.2l-20.1,30.6l-5.1-1L231.4,675.5z"/>
			<path d="M272.8,682.5l24.8,1.3l-0.3,5.3l-19-1l-0.4,8.6l16.8,0.9l-0.3,5.3l-16.8-0.9l-0.5,9l19.2,1l-0.3,5.3l-25.1-1.3
				L272.8,682.5z"/>
			<path d="M307.9,683.6l5.8-0.5L315,697l16.1-1.4l-1.2-13.9l5.8-0.5l3,33.5l-5.8,0.5l-1.3-14.1l-16.1,1.4l1.3,14.1l-5.8,0.5
				L307.9,683.6z"/>
			<path d="M347.8,678.8l5.7-1.2l6.7,32.9l-5.7,1.2L347.8,678.8z"/>
			<path d="M391,702.8c-2.3,0.7-4.6,1-6.9,0.8c-2.3-0.2-4.3-0.8-6.3-1.9c-1.9-1-3.6-2.4-5.1-4.1c-1.5-1.7-2.6-3.8-3.3-6.1l0-0.1
				c-0.7-2.3-1-4.6-0.8-6.8c0.2-2.3,0.8-4.4,1.8-6.4c1-2,2.4-3.7,4.1-5.2c1.7-1.5,3.8-2.7,6.3-3.4c1.5-0.5,2.8-0.8,4.1-0.9
				c1.3-0.1,2.5-0.1,3.6,0c1.1,0.1,2.2,0.4,3.3,0.7c1,0.3,2.1,0.7,3.1,1.2l-2.3,5.3c-1.7-0.8-3.3-1.3-5-1.6
				c-1.7-0.3-3.4-0.1-5.2,0.5c-1.5,0.5-2.8,1.2-3.9,2.2c-1.1,1-2,2.2-2.6,3.5c-0.6,1.3-1,2.8-1,4.3c-0.1,1.5,0.1,3.1,0.6,4.6l0,0.1
				c0.5,1.6,1.2,2.9,2.2,4.2c1,1.2,2.1,2.2,3.4,2.9c1.3,0.7,2.7,1.2,4.1,1.4c1.5,0.2,3,0,4.5-0.5c2-0.6,3.5-1.5,4.7-2.7
				c1.2-1.2,2.2-2.6,3.2-4.4l4.8,2.5c-0.5,1.1-1.2,2.2-1.8,3.2c-0.7,1-1.5,1.9-2.3,2.7c-0.9,0.8-1.9,1.6-3,2.2
				C393.8,701.8,392.5,702.4,391,702.8z"/>
			<path d="M402.1,662.4l5.3-2.5l12.1,25.5l15.9-7.6l2.3,4.8l-21.2,10.1L402.1,662.4z"/>
			<path d="M431.5,647.7l20.9-13.5l2.9,4.5l-16,10.3l4.7,7.3l14.2-9.1l2.9,4.5l-14.2,9.1l4.9,7.5l16.2-10.4l2.9,4.5l-21.1,13.6
				L431.5,647.7z"/>
			<path d="M491.8,646.2c-2,1.7-4.2,2.9-6.5,3.8c-2.4,0.9-4.9,1.2-7.6,1.2l0-5.5c2.2,0,4.1-0.2,5.9-0.7c1.8-0.5,3.4-1.4,5.1-2.8
				c1.4-1.2,2.2-2.4,2.6-3.7c0.3-1.3,0.1-2.4-0.8-3.4l-0.1-0.1c-0.4-0.5-0.8-0.8-1.3-1c-0.5-0.2-1-0.3-1.7-0.3
				c-0.7,0-1.5,0.3-2.5,0.6c-1,0.4-2.2,0.9-3.6,1.7c-1.6,0.8-3.2,1.5-4.6,2c-1.4,0.5-2.7,0.8-3.9,0.8c-1.2,0-2.4-0.2-3.4-0.7
				c-1.1-0.5-2.1-1.4-3.1-2.5l-0.1-0.1c-0.9-1.1-1.6-2.3-1.9-3.6c-0.3-1.3-0.4-2.6-0.2-3.9c0.2-1.3,0.7-2.6,1.5-3.9
				c0.8-1.3,1.8-2.4,3-3.5c1.9-1.6,3.8-2.7,5.8-3.5c2-0.7,4.1-1.1,6.3-1.2l0.5,5.5c-1.9,0.1-3.6,0.5-5.1,1c-1.5,0.5-2.9,1.3-4.1,2.3
				c-1.3,1.1-2.1,2.3-2.3,3.5c-0.2,1.2,0,2.2,0.7,3.1l0.1,0.1c0.4,0.5,0.9,0.8,1.4,1.1c0.5,0.2,1.1,0.3,1.8,0.2
				c0.7-0.1,1.6-0.3,2.6-0.7c1-0.4,2.3-1,3.7-1.7c1.6-0.8,3.2-1.4,4.5-1.9c1.4-0.5,2.7-0.7,3.9-0.7c1.2,0,2.3,0.3,3.3,0.8
				c1,0.5,2,1.3,2.9,2.3l0.1,0.1c1,1.2,1.7,2.5,2.1,3.8c0.4,1.3,0.4,2.7,0.2,4c-0.2,1.3-0.8,2.6-1.6,3.9
				C494.2,643.9,493.1,645.1,491.8,646.2z"/>
			<path d="M498.6,591.9l3.7-4.6l22.1,17.7l11-13.8l4.2,3.3l-14.7,18.4L498.6,591.9z"/>
			<path d="M527.6,561.6l-5.6,9.1l-4.7-2.8l14.2-23.3l4.7,2.8l-5.6,9.1l24,14.6l-3.1,5.1L527.6,561.6z"/>
			<path d="M535.8,536.3l4.9-11.5c1-2.4,2.4-4.5,4-6.1c1.6-1.7,3.5-2.9,5.5-3.8c2-0.9,4.1-1.3,6.3-1.3c2.2,0,4.4,0.5,6.6,1.4l0.1,0
				c2.2,0.9,4,2.2,5.6,3.8c1.5,1.6,2.7,3.4,3.4,5.5c0.8,2,1.1,4.3,1,6.6c-0.1,2.4-0.6,4.7-1.7,7.1l-4.9,11.5L535.8,536.3z
				 M566.7,536c0.7-1.6,1.1-3.2,1.1-4.7c0.1-1.5-0.2-3-0.7-4.3c-0.5-1.3-1.3-2.5-2.4-3.6c-1.1-1.1-2.3-1.9-3.9-2.6l-0.1,0
				c-1.5-0.6-3-1-4.5-1c-1.5,0-2.9,0.2-4.3,0.7c-1.3,0.5-2.5,1.3-3.6,2.4c-1.1,1.1-2,2.5-2.7,4.1l-2.6,6.1l21.1,9.1L566.7,536z"/>
		</g>
	</g>
	<rect x="42.8" y="415.1" width="54" height="12.9"/>
	<rect x="496.7" y="415.1" width="54" height="12.9"/>
	<g>
		<defs>
			
				<rect id="SVGID_1_" x="37.5" y="293.9" transform="matrix(0.7071 0.7071 -0.7071 0.7071 473.8185 -43.3618)" width="503.6" height="512.7"/>
		</defs>
		<clipPath id="SVGID_2_">
			<use xlink:href="#SVGID_1_"  overflow="visible"/>
		</clipPath>
		<g clip-path="url(#SVGID_2_)">
			<polygon points="158.3,557.5 158.3,290.6 173.5,290.6 173.5,525.5 294.2,427.4 417.1,525.7 417.1,290.6 432.3,290.6 432.3,557.3 
				294.3,447 			"/>
			<polygon points="215.8,434.2 215.8,254.6 231,254.6 231,401.4 294.2,348.3 359.6,401.8 359.6,254.6 374.8,254.6 374.8,433.8 
				294.3,368 			"/>
		</g>
	</g>
</g>
<title>logo</title>
</svg>
